<?xml version="1.0" standalone="no"?>
<!DOCTYPE svg PUBLIC "-//W3C//DTD SVG 20010904//EN"
 "http://www.w3.org/TR/2001/REC-SVG-20010904/DTD/svg10.dtd">
<svg version="1.0" xmlns="http://www.w3.org/2000/svg"
 width="512.000000pt" height="512.000000pt" viewBox="0 0 512.000000 512.000000"
 preserveAspectRatio="xMidYMid meet">
<metadata>
Created by potrace 1.16, written by Peter Selinger 2001-2019
</metadata>
<g transform="translate(0.000000,512.000000) scale(0.100000,-0.100000)"
fill="#000000" stroke="none">
<path d="M102 5017 c-45 -45 -82 -87 -82 -92 0 -6 532 -542 1182 -1192 l1183
-1183 -1183 -1183 c-650 -650 -1182 -1187 -1182 -1192 0 -13 152 -165 165
-165 6 0 543 533 1195 1185 l1185 1185 1178 -1185 c648 -652 1184 -1185 1191
-1185 6 0 50 38 96 85 l85 85 -1188 1188 -1187 1187 1187 1187 1188 1188 -88
87 -87 88 -1188 -1188 -1187 -1187 -1185 1185 c-652 652 -1187 1185 -1190
1185 -3 0 -42 -37 -88 -83z"/>
</g>
</svg>
